<svg width="25" height="24" viewBox="0 0 25 24" fill="none" xmlns="http://www.w3.org/2000/svg">
<path d="M18.1333 14.1667C18.4334 14.1667 18.5834 14.1667 18.7051 14.2333C18.8054 14.2883 18.8988 14.3915 18.9434 14.4968C18.9976 14.6244 18.984 14.7603 18.9567 15.0319C18.8154 16.4403 18.3307 17.7974 17.5394 18.9816C16.5871 20.4068 15.2335 21.5177 13.6499 22.1736C12.0663 22.8296 10.3237 23.0012 8.64254 22.6668C6.96138 22.3324 5.41712 21.507 4.20507 20.2949C2.99301 19.0829 2.16759 17.5386 1.83319 15.8574C1.49878 14.1763 1.67041 12.4337 2.32637 10.8501C2.98233 9.26645 4.09316 7.9129 5.51839 6.96059C6.7026 6.16932 8.05968 5.6846 9.46808 5.54329C9.73973 5.51603 9.87556 5.50241 10.0032 5.55656C10.1085 5.60124 10.2117 5.69461 10.2667 5.79493C10.3333 5.91654 10.3333 6.06658 10.3333 6.36666V13.3C10.3333 13.6034 10.3333 13.755 10.3924 13.8709C10.4443 13.9728 10.5272 14.0557 10.6291 14.1076C10.745 14.1667 10.8966 14.1667 11.2 14.1667H18.1333Z" stroke="#475467" stroke-width="2" stroke-linecap="round" stroke-linejoin="round"/>
<path d="M14.6667 2.03333C14.6667 1.73324 14.6667 1.5832 14.7333 1.46159C14.7883 1.36127 14.8915 1.2679 14.9968 1.22322C15.1244 1.16906 15.2602 1.18269 15.5319 1.20994C17.5127 1.40862 19.3748 2.28499 20.7949 3.70507C22.215 5.12515 23.0914 6.9873 23.2901 8.96807C23.3173 9.23974 23.3309 9.37557 23.2768 9.50322C23.2321 9.60853 23.1387 9.71173 23.0384 9.7667C22.9168 9.83333 22.7667 9.83333 22.4667 9.83333L15.5333 9.83333C15.23 9.83333 15.0783 9.83333 14.9624 9.77429C14.8605 9.72236 14.7776 9.6395 14.7257 9.53757C14.6667 9.42171 14.6667 9.27002 14.6667 8.96666V2.03333Z" stroke="#475467" stroke-width="2" stroke-linecap="round" stroke-linejoin="round"/>
</svg>
