<svg width="20" height="21" viewBox="0 0 20 21" fill="none" xmlns="http://www.w3.org/2000/svg">
<path d="M19 19.5H2.6C2.03995 19.5 1.75992 19.5 1.54601 19.391C1.35785 19.2951 1.20487 19.1422 1.10899 18.954C1 18.7401 1 18.4601 1 17.9V1.5M18 6.5L14.0811 10.6827C13.9326 10.8412 13.8584 10.9204 13.7688 10.9614C13.6897 10.9976 13.6026 11.0125 13.516 11.0047C13.4179 10.9958 13.3215 10.9458 13.1287 10.8457L9.87132 9.15433C9.67854 9.05423 9.58215 9.00418 9.48404 8.99534C9.39744 8.98753 9.31031 9.00245 9.23124 9.0386C9.14165 9.07957 9.06739 9.15883 8.91887 9.31734L5 13.5" stroke="#F2F4F7" stroke-width="2" stroke-linecap="round" stroke-linejoin="round"/>
</svg>
