<svg width="22" height="23" viewBox="0 0 22 23" fill="none" xmlns="http://www.w3.org/2000/svg">
<path d="M6.66667 17.4167H15.3333M9.93584 1.99435L2.58834 7.70907C2.09719 8.09107 1.85161 8.28207 1.6747 8.52128C1.51798 8.73316 1.40123 8.97186 1.3302 9.22565C1.25 9.51216 1.25 9.82327 1.25 10.4455V18.2833C1.25 19.4968 1.25 20.1035 1.48615 20.567C1.69388 20.9747 2.02534 21.3061 2.43302 21.5138C2.8965 21.75 3.50322 21.75 4.71667 21.75H17.2833C18.4968 21.75 19.1035 21.75 19.567 21.5138C19.9747 21.3061 20.3061 20.9747 20.5138 20.567C20.75 20.1035 20.75 19.4968 20.75 18.2833V10.4455C20.75 9.82327 20.75 9.51216 20.6698 9.22565C20.5988 8.97186 20.482 8.73316 20.3253 8.52128C20.1484 8.28207 19.9028 8.09107 19.4117 7.70907L12.0642 1.99435C11.6836 1.69832 11.4933 1.55031 11.2831 1.49342C11.0977 1.44321 10.9023 1.44321 10.7169 1.49342C10.5067 1.55031 10.3164 1.69832 9.93584 1.99435Z" stroke="#344054" stroke-width="2" stroke-linecap="round" stroke-linejoin="round"/>
</svg>
