<svg width="30" height="31" viewBox="0 0 30 31" fill="none" xmlns="http://www.w3.org/2000/svg">
<path d="M9 23.5H21M13.5265 2.146L3.35309 10.0587C2.67303 10.5876 2.33301 10.8521 2.08804 11.1833C1.87105 11.4767 1.7094 11.8072 1.61104 12.1586C1.5 12.5553 1.5 12.986 1.5 13.8476V24.7C1.5 26.3801 1.5 27.2202 1.82698 27.8619C2.1146 28.4264 2.57354 28.8854 3.13803 29.173C3.77976 29.5 4.61984 29.5 6.3 29.5H23.7C25.3802 29.5 26.2202 29.5 26.862 29.173C27.4265 28.8854 27.8854 28.4264 28.173 27.8619C28.5 27.2202 28.5 26.3801 28.5 24.7V13.8476C28.5 12.986 28.5 12.5553 28.389 12.1586C28.2906 11.8072 28.129 11.4767 27.912 11.1833C27.667 10.8521 27.327 10.5876 26.6469 10.0587L16.4735 2.146C15.9465 1.73612 15.683 1.53118 15.392 1.4524C15.1353 1.38289 14.8647 1.38289 14.608 1.4524C14.317 1.53118 14.0535 1.73612 13.5265 2.146Z" stroke="white" stroke-width="2" stroke-linecap="round" stroke-linejoin="round"/>
</svg>
