<svg width="24" height="24" viewBox="0 0 24 24" fill="none" xmlns="http://www.w3.org/2000/svg">
<path d="M4.41669 14.4769C2.41104 15.3617 1.16669 16.5946 1.16669 17.9583C1.16669 20.6507 6.01694 22.8333 12 22.8333C17.9831 22.8333 22.8334 20.6507 22.8334 17.9583C22.8334 16.5946 21.589 15.3617 19.5834 14.4769M18.5 7.66667C18.5 12.069 13.625 14.1667 12 17.4167C10.375 14.1667 5.50002 12.069 5.50002 7.66667C5.50002 4.07682 8.41017 1.16667 12 1.16667C15.5899 1.16667 18.5 4.07682 18.5 7.66667ZM13.0834 7.66667C13.0834 8.26498 12.5983 8.75001 12 8.75001C11.4017 8.75001 10.9167 8.26498 10.9167 7.66667C10.9167 7.06836 11.4017 6.58334 12 6.58334C12.5983 6.58334 13.0834 7.06836 13.0834 7.66667Z" stroke="#344054" stroke-width="2" stroke-linecap="round" stroke-linejoin="round"/>
</svg>
