<svg width="21" height="24" viewBox="0 0 21 24" fill="none" xmlns="http://www.w3.org/2000/svg">
<path d="M7.63369 21.75C8.39758 22.4242 9.40102 22.8333 10.5 22.8333C11.599 22.8333 12.6024 22.4242 13.3663 21.75M17 7.66667C17 5.94276 16.3152 4.28946 15.0962 3.07048C13.8772 1.85149 12.2239 1.16667 10.5 1.16667C8.77609 1.16667 7.12279 1.85149 5.90381 3.07048C4.68482 4.28946 4 5.94276 4 7.66667C4 11.0144 3.15551 13.3065 2.21214 14.8225C1.41639 16.1014 1.01851 16.7408 1.0331 16.9192C1.04926 17.1167 1.0911 17.192 1.25026 17.31C1.394 17.4167 2.04197 17.4167 3.33793 17.4167H17.6621C18.958 17.4167 19.606 17.4167 19.7497 17.31C19.9089 17.192 19.9507 17.1167 19.9669 16.9192C19.9815 16.7408 19.5836 16.1014 18.7879 14.8225C17.8445 13.3065 17 11.0144 17 7.66667Z" stroke="#475467" stroke-width="2" stroke-linecap="round" stroke-linejoin="round"/>
</svg>
