<svg width="24" height="24" viewBox="0 0 24 24" fill="none" xmlns="http://www.w3.org/2000/svg">
<path d="M4.75931 20.0583C5.41833 18.5056 6.95699 17.4167 8.74999 17.4167H15.25C17.043 17.4167 18.5816 18.5056 19.2407 20.0583M16.3333 9.29167C16.3333 11.6849 14.3932 13.625 12 13.625C9.60676 13.625 7.66666 11.6849 7.66666 9.29167C7.66666 6.89844 9.60676 4.95834 12 4.95834C14.3932 4.95834 16.3333 6.89844 16.3333 9.29167ZM22.8333 12C22.8333 17.9831 17.9831 22.8333 12 22.8333C6.01691 22.8333 1.16666 17.9831 1.16666 12C1.16666 6.01692 6.01691 1.16667 12 1.16667C17.9831 1.16667 22.8333 6.01692 22.8333 12Z" stroke="#475467" stroke-width="2" stroke-linecap="round" stroke-linejoin="round"/>
</svg>
