<svg width="44" height="54" viewBox="0 0 44 54" fill="none" xmlns="http://www.w3.org/2000/svg">
<path d="M14.5 25.7499L19.5 30.7499L30.75 19.4999M42 26.9999C42 39.271 28.6151 48.1959 23.745 51.0371C23.1915 51.36 22.9148 51.5215 22.5242 51.6052C22.2211 51.6702 21.7789 51.6702 21.4758 51.6052C21.0852 51.5215 20.8085 51.36 20.255 51.0371C15.3849 48.1959 2 39.271 2 26.9999V15.0439C2 13.0451 2 12.0458 2.3269 11.1867C2.61569 10.4278 3.08496 9.75061 3.69415 9.21375C4.38374 8.60602 5.3195 8.25511 7.19101 7.55329L20.5955 2.52661C21.1152 2.3317 21.3751 2.23425 21.6425 2.19562C21.8796 2.16136 22.1204 2.16136 22.3575 2.19562C22.6249 2.23425 22.8848 2.3317 23.4045 2.52661L36.809 7.55329C38.6805 8.25511 39.6163 8.60602 40.3059 9.21375C40.915 9.75061 41.3843 10.4278 41.6731 11.1867C42 12.0458 42 13.0451 42 15.0439V26.9999Z" stroke="#7F56D9" stroke-width="4" stroke-linecap="round" stroke-linejoin="round"/>
</svg>
